<?xml version="1.0" encoding="UTF-8" standalone="no"?>
<!-- Created with Inkscape (http://www.inkscape.org/) -->

<svg
   xmlns:dc="http://purl.org/dc/elements/1.1/"
   xmlns:cc="http://creativecommons.org/ns#"
   xmlns:rdf="http://www.w3.org/1999/02/22-rdf-syntax-ns#"
   xmlns:svg="http://www.w3.org/2000/svg"
   xmlns="http://www.w3.org/2000/svg"
   xmlns:sodipodi="http://sodipodi.sourceforge.net/DTD/sodipodi-0.dtd"
   xmlns:inkscape="http://www.inkscape.org/namespaces/inkscape"
   width="512"
   height="512"
   viewBox="0 0 135.46667 135.46667"
   version="1.1"
   id="svg8"
   inkscape:version="0.92.0 r15299"
   sodipodi:docname="FollowER_Icon_2.svg">
  <defs
     id="defs2" />
  <sodipodi:namedview
     id="base"
     pagecolor="#ffffff"
     bordercolor="#666666"
     borderopacity="1.0"
     inkscape:pageopacity="0.0"
     inkscape:pageshadow="2"
     inkscape:zoom="1"
     inkscape:cx="-6.3760942"
     inkscape:cy="233.33476"
     inkscape:document-units="mm"
     inkscape:current-layer="layer2"
     showgrid="false"
     units="px"
     width="256px"
     inkscape:window-width="1920"
     inkscape:window-height="1027"
     inkscape:window-x="-8"
     inkscape:window-y="-8"
     inkscape:window-maximized="1"
     inkscape:snap-nodes="true" />
  <metadata
     id="metadata5">
    <rdf:RDF>
      <cc:Work
         rdf:about="">
        <dc:format>image/svg+xml</dc:format>
        <dc:type
           rdf:resource="http://purl.org/dc/dcmitype/StillImage" />
        <dc:title />
      </cc:Work>
    </rdf:RDF>
  </metadata>
  <g
     inkscape:groupmode="layer"
     id="layer4"
     inkscape:label="Calque 4">
    <circle
       style="opacity:0.66199999;fill:none;fill-opacity:1;fill-rule:nonzero;stroke:#000000;stroke-width:8.38347149;stroke-linecap:round;stroke-linejoin:round;stroke-miterlimit:4;stroke-dasharray:none;stroke-dashoffset:0;stroke-opacity:1"
       id="path987"
       r="23.843609"
       cy="95.383026"
       cx="66.119606" />
    <g
       id="g1058"
       transform="matrix(0.6007651,0,0,0.6007651,45.180807,-6.5596653)"
       style="fill:#00a99f;fill-opacity:1;stroke:#ffffff;stroke-width:1.32464862;stroke-miterlimit:4;stroke-dasharray:none;stroke-opacity:1">
      <path
         style="fill:#00a99f;fill-opacity:1;stroke:#ffffff;stroke-width:1.32464862;stroke-miterlimit:4;stroke-dasharray:none;stroke-opacity:1"
         d="m 32.203573,103.52236 c -6.716982,-2.20613 -8.658899,-10.396426 -3.575888,-15.081783 1.892757,-1.744681 3.282886,-2.275734 5.957138,-2.275734 2.674252,0 4.064381,0.531053 5.957138,2.275734 4.579594,4.221323 3.538075,11.565853 -2.045446,14.423943 -1.106794,0.56655 -1.839235,0.7323 -3.514817,0.79539 -1.164167,0.0438 -2.414323,-0.0181 -2.778125,-0.13755 z M 16.387256,86.696851 c -1.554051,-0.485275 -2.819887,-1.511969 -3.690802,-2.993541 -0.612921,-1.042672 -0.733505,-1.552276 -0.733505,-3.099887 0,-2.367544 0.514427,-3.425901 2.771889,-5.702749 10.273371,-10.361588 27.009353,-10.956218 38.2797,-1.360078 3.364084,2.86435 4.558167,5.05034 4.237535,7.757588 -0.316154,2.669411 -2.30745,4.891368 -4.952201,5.525834 -2.452674,0.588388 -4.308022,-0.138793 -6.919544,-2.71203 -2.951642,-2.908371 -6.667074,-4.434607 -10.795505,-4.434607 -4.261625,0 -7.714212,1.462876 -10.974493,4.649938 -1.572035,1.536732 -2.275427,2.028881 -3.360107,2.350998 -1.63495,0.485526 -2.356374,0.488987 -3.862967,0.01852 z M 1.836679,72.76741 C -1.2761141,71.226606 -2.4746598,67.217285 -0.72960402,64.182795 0.02717147,62.866832 4.3886753,58.645114 7.0744476,56.628862 13.553751,51.764744 20.308741,48.974128 28.499407,47.777799 c 4.074279,-0.595091 10.850352,-0.410096 14.816665,0.404508 9.471506,1.945267 17.880967,6.624095 24.661261,13.720949 1.692423,1.771441 2.112703,2.390159 2.478651,3.648972 0.37248,1.281292 0.391633,1.734934 0.123785,2.931803 -0.656719,2.934538 -3.006479,4.848116 -5.940207,4.837541 -2.244672,-0.0081 -3.296283,-0.573591 -6.342719,-3.410768 -4.223334,-3.933237 -7.845392,-6.123127 -12.954028,-7.831986 -6.893769,-2.305997 -14.523952,-2.30201 -21.51899,0.01125 -5.556964,1.837684 -9.097377,4.091434 -14.5067087,9.234656 C 8.735033,71.878166 7.7825331,72.55256 7.2004498,72.823374 5.7178953,73.513127 3.2920783,73.487817 1.836679,72.76741 Z m -13.17581,-13.299106 c -1.675315,-0.780105 -2.918038,-2.253313 -3.458402,-4.099822 -0.805002,-2.750825 -0.03737,-4.618217 3.314806,-8.063859 9.5361442,-9.802014 22.626675,-16.370372 37.071717,-18.601256 4.231116,-0.653451 13.737195,-0.655508 17.991666,-0.0039 14.19332,2.17385 26.433167,8.219706 36.469405,18.014014 1.50427,1.468006 3.033601,3.175071 3.398519,3.793479 2.581998,4.375589 -1.092763,10.030449 -6.197776,9.537369 C 75.343875,59.860144 74.365049,59.262967 71.623495,56.61112 70.242693,55.2755 68.219977,53.469904 67.128571,52.598687 52.389642,40.83331 32.858316,37.881429 15.419823,44.783657 8.8306101,47.391695 3.0151823,51.253278 -2.4823854,56.671153 c -1.3683985,1.348563 -2.9642473,2.668722 -3.5463306,2.933687 -1.5126424,0.688557 -3.656884,0.633425 -5.310415,-0.136536 z"
         id="path1072"
         inkscape:connector-curvature="0" />
      <path
         style="fill:#00a99f;fill-opacity:1;stroke:#ffffff;stroke-width:1.32464862;stroke-miterlimit:4;stroke-dasharray:none;stroke-opacity:1"
         d="m 31.471558,103.0486 c -1.596509,-0.56499 -3.858585,-2.72713 -4.745164,-4.535509 -0.625464,-1.275783 -0.736412,-1.828477 -0.72712,-3.622169 0.01389,-2.683512 0.850265,-4.578495 2.790764,-6.323173 4.329745,-3.892812 11.104843,-2.552883 13.640699,2.697757 0.603858,1.250326 0.730546,1.8713 0.739635,3.625416 0.0093,1.793692 -0.101656,2.346386 -0.72712,3.622169 -0.920279,1.877129 -3.155249,3.973199 -4.853461,4.551839 -1.551657,0.52871 -4.601117,0.52056 -6.118233,-0.0163 z M 16.261891,86.459755 c -1.599737,-0.596865 -2.752849,-1.649079 -3.515505,-3.207893 -0.607351,-1.24138 -0.69664,-1.711441 -0.603361,-3.176365 0.09496,-1.491382 0.25142,-1.921208 1.179933,-3.241555 2.022361,-2.875796 6.924325,-6.435796 11.0731,-8.041722 3.705331,-1.434274 6.570332,-1.882574 11.114807,-1.739188 4.35257,0.137332 6.493536,0.575754 10.058058,2.05967 4.498514,1.872736 10.10337,6.440471 11.097754,9.044228 1.453837,3.806824 -1.081768,8.099583 -5.062678,8.571062 -2.145837,0.254143 -3.640394,-0.393792 -5.82183,-2.523939 -3.131913,-3.058277 -6.205691,-4.469474 -10.273326,-4.716574 -4.502337,-0.273505 -8.532214,1.271987 -11.937438,4.578115 -0.983514,0.954891 -2.141836,1.919036 -2.574047,2.142542 -1.104656,0.571238 -3.532986,0.700268 -4.735467,0.251619 z M 2.9247168,72.961447 C 0.54135131,72.186364 -1.0175336,70.287298 -1.3121106,67.800054 -1.547235,65.814798 -0.87697613,64.312055 1.2253,62.111092 7.8621984,55.162637 16.247046,50.45794 25.655393,48.403488 c 2.378638,-0.519411 3.47545,-0.592145 8.92943,-0.592145 5.440039,0 6.55407,0.07349 8.907028,0.587578 7.718253,1.686335 14.431956,4.953746 20.329428,9.893884 3.473297,2.90948 5.780582,5.41973 6.342518,6.900455 1.859261,4.899228 -3.534527,9.809511 -8.156228,7.425097 C 61.5499,72.38224 60.227862,71.309392 59.069707,70.234249 54.98602,66.443279 51.542724,64.20475 47.193358,62.513293 38.703144,59.211468 29.187831,59.375814 20.85523,62.968194 16.828565,64.704183 13.339748,67.106832 9.449408,70.823053 8.6490435,71.587596 7.6092985,72.406304 7.1388638,72.642402 5.9290947,73.249552 4.2106845,73.37965 2.9247168,72.961447 Z M -9.8651741,59.801025 c -3.5825159,-0.680145 -5.8020039,-4.615338 -4.6254589,-8.201021 0.40094,-1.221918 0.921118,-1.874801 3.670777,-4.607245 9.5632031,-9.503326 21.415099,-15.510865 35.342546,-17.91458 4.521346,-0.780331 14.960292,-0.837137 19.587132,-0.106589 13.546735,2.138944 25.699875,8.173608 35.570356,17.662526 3.357745,3.227943 4.381725,4.818139 4.381725,6.804623 0,2.55171 -1.436465,4.932632 -3.557108,5.895855 -1.297554,0.589367 -3.77058,0.650386 -5.030131,0.124111 -0.49353,-0.206211 -2.245879,-1.64674 -3.894106,-3.201178 C 61.596142,46.841261 51.217612,42.104115 38.222844,41.03183 32.08341,40.525224 24.967712,41.376903 18.842116,43.35151 10.770665,45.953372 4.3575891,49.857167 -2.4821272,56.332092 c -3.565035,3.374898 -4.8063377,3.958124 -7.3830469,3.468933 z"
         id="path1070"
         inkscape:connector-curvature="0" />
      <path
         style="fill:#00a99f;fill-opacity:1;stroke:#ffffff;stroke-width:1.32464862;stroke-miterlimit:4;stroke-dasharray:none;stroke-opacity:1"
         d="m 31.940416,103.0646 c -3.838183,-1.39463 -5.990516,-4.61912 -5.778312,-8.656704 0.386646,-7.356739 9.288727,-10.716667 14.445265,-5.452099 1.638308,1.672627 2.285362,3.167655 2.396985,5.53825 0.07317,1.554009 -0.03072,2.314985 -0.479034,3.508782 -0.698354,1.859622 -2.509456,3.797971 -4.368622,4.675561 -1.728753,0.81603 -4.550836,0.99136 -6.216282,0.38621 z M 16.071897,86.262175 c -1.14001,-0.454975 -2.356326,-1.539094 -3.019306,-2.691156 -1.500812,-2.607956 -1.081064,-5.170879 1.272886,-7.77208 5.269452,-5.822931 13.440632,-9.12709 21.582263,-8.727164 7.015463,0.344609 13.237648,3.073355 18.150833,7.960071 2.448711,2.435516 3.208284,4.030779 2.920156,6.132917 -0.44269,3.229771 -2.897521,5.391785 -6.122032,5.391785 -1.994823,0 -3.08792,-0.515679 -4.854855,-2.290313 -3.753435,-3.769791 -8.361108,-5.452189 -13.250724,-4.838226 -3.671541,0.461015 -6.23149,1.7242 -9.213469,4.546311 -1.055478,0.99889 -2.331577,1.988529 -2.835772,2.199196 -1.034873,0.432398 -3.643526,0.482351 -4.62998,0.08866 z M 2.4379501,72.695332 c -2.26330095,-0.988732 -3.5564445,-2.994067 -3.566064,-5.530053 -0.00826,-2.178458 0.55064608,-3.071797 4.0114231,-6.411717 3.8722022,-3.736974 7.1141546,-6.035494 11.7254738,-8.313266 4.147534,-2.048684 7.315339,-3.130123 11.786022,-4.023558 4.372578,-0.873828 12.007458,-0.873828 16.380036,0 7.379715,1.474785 14.62243,4.7777 19.988105,9.115229 2.345097,1.895742 6.506035,6.109329 7.030807,7.11977 0.663249,1.277078 0.669091,3.669215 0.01249,5.114716 -1.265965,2.787012 -4.784267,4.070072 -7.624635,2.780562 -0.610774,-0.277289 -2.254731,-1.581357 -3.653231,-2.897929 -4.066146,-3.827933 -7.911253,-6.159557 -12.917971,-7.83329 -3.739203,-1.250006 -6.740675,-1.71758 -11.025581,-1.71758 -9.32779,0 -16.941706,3.034842 -23.955649,9.548513 -1.4444369,1.341411 -3.1044617,2.656173 -3.6889445,2.92169 -1.2386741,0.5627 -3.3673646,0.622705 -4.5022794,0.126913 z M -10.622656,59.471381 c -1.318154,-0.47702 -2.942866,-1.954794 -3.501484,-3.184816 -0.604543,-1.331142 -0.654138,-3.782398 -0.103206,-5.100965 0.518579,-1.241134 4.8259204,-5.634103 8.19863,-8.361619 9.3299377,-7.545127 20.907559,-12.437582 33.072914,-13.975905 3.622239,-0.458036 12.250203,-0.398641 15.884011,0.109346 11.368431,1.589246 21.799464,5.88981 30.81477,12.704482 3.104457,2.346659 8.882274,7.915704 9.530296,9.185937 1.282653,2.514206 0.883381,4.917548 -1.166471,7.021382 -1.540978,1.581558 -2.953054,2.113584 -4.975989,1.874798 C 75.282243,59.525814 74.523727,59.02392 71.139244,55.77952 64.871069,49.770786 58.765293,46.028993 50.983927,43.427776 45.052964,41.445124 39.354757,40.636677 32.86886,40.857655 c -6.913403,0.235543 -12.441194,1.454731 -18.830778,4.15324 -5.9028919,2.492962 -10.924299,5.87652 -16.0126886,10.789774 -1.7882901,1.726739 -3.5713612,3.20191 -4.2333331,3.502321 -1.2832764,0.582366 -3.0812598,0.650946 -4.4147163,0.168391 z"
         id="path1068"
         inkscape:connector-curvature="0" />
      <path
         style="fill:#00a99f;fill-opacity:1;stroke:#ffffff;stroke-width:1.32464862;stroke-miterlimit:4;stroke-dasharray:none;stroke-opacity:1"
         d="m 33.190866,103.20136 c -2.699713,-0.42406 -5.165934,-2.34468 -6.364726,-4.956667 -0.879904,-1.917181 -0.809332,-4.994669 0.159792,-6.968122 0.807958,-1.645264 2.19828,-3.0466 3.948948,-3.980227 0.955167,-0.509389 1.537264,-0.606042 3.649943,-0.606042 2.112679,0 2.694776,0.09665 3.649943,0.606042 1.73819,0.926973 3.048291,2.248619 3.902455,3.936846 0.663925,1.312222 0.775716,1.836761 0.778606,3.653308 0.0029,1.79174 -0.111678,2.355371 -0.737558,3.629906 -1.671069,3.402936 -5.255082,5.271206 -8.987403,4.684956 z M 16.229295,86.167846 c -3.168838,-1.129528 -4.799968,-5.194993 -3.315034,-8.262458 1.167321,-2.411365 6.129086,-6.473158 10.115354,-8.280617 0.961173,-0.435819 2.793444,-1.115316 4.071712,-1.510001 2.190755,-0.676423 2.620182,-0.717602 7.483496,-0.717602 4.878419,0 5.28761,0.03956 7.514269,0.726521 4.809374,1.483765 8.676875,3.748392 11.969503,7.008781 2.073413,2.053108 2.729606,3.336512 2.729606,5.338661 0,4.160925 -3.694207,6.926908 -7.748047,5.801233 -0.669092,-0.185796 -1.762271,-0.977294 -3.221294,-2.332331 -2.56621,-2.383311 -4.578564,-3.539111 -7.432982,-4.26915 -3.728878,-0.953685 -7.833309,-0.453998 -11.25616,1.370362 -0.874739,0.46623 -2.584256,1.770684 -3.798932,2.898788 -2.813325,2.612813 -4.5261,3.149372 -7.111491,2.227813 z M 2.7511649,72.694602 C -0.56921441,71.460638 -2.0236392,67.808372 -0.45122427,64.652946 0.64980057,62.443477 6.180174,57.493388 10.789901,54.591314 c 12.893735,-8.117305 30.091645,-8.955209 43.705737,-2.129398 4.529106,2.270796 7.868631,4.634097 11.882064,8.408645 2.901069,2.728397 3.929515,4.396243 3.920058,6.357207 -0.0149,3.090902 -2.825305,5.844796 -5.947314,5.827744 -1.40181,-0.0076 -3.032387,-0.991608 -5.513009,-3.326762 -5.181441,-4.877588 -11.056974,-7.932383 -17.854402,-9.282819 -3.136937,-0.62321 -9.659487,-0.62321 -12.796424,0 -6.774815,1.345944 -12.668696,4.403709 -17.812413,9.241144 -1.3089991,1.231054 -2.7733527,2.441041 -3.2541191,2.68886 -1.2197886,0.628761 -3.1547324,0.769895 -4.368914,0.318667 z M -10.177236,59.470426 c -1.746861,-0.478668 -2.971426,-1.513962 -3.804301,-3.216296 -0.619762,-1.266748 -0.697911,-1.687126 -0.571928,-3.07649 0.174468,-1.924055 1.120775,-3.449857 3.685142,-5.941827 9.7430963,-9.468031 21.480607,-15.452273 35.046259,-17.867954 4.609652,-0.820857 15.513387,-0.894465 20.064178,-0.135449 3.777959,0.630117 9.104005,2.000161 12.435416,3.198821 8.531105,3.069536 18.797644,9.767315 24.578226,16.034566 1.913202,2.074278 2.528112,3.36119 2.535753,5.306952 0.01728,4.399756 -4.874622,7.292625 -8.825859,5.21925 -0.30857,-0.16192 -1.6326,-1.330013 -2.942288,-2.595764 -4.91872,-4.75371 -9.233733,-7.849242 -14.552082,-10.439476 -7.342936,-3.57628 -14.509863,-5.223041 -22.754165,-5.228273 -8.443301,-0.0054 -15.619552,1.62459 -23.018749,5.228273 -5.3383304,2.599965 -9.7327241,5.75452 -14.5520822,10.446345 -1.3096874,1.275027 -2.7384373,2.494891 -3.1749998,2.710804 -1.2087298,0.597807 -2.7763182,0.732525 -4.14852,0.356518 z"
         id="path1066"
         inkscape:connector-curvature="0" />
      <path
         style="fill:#00a99f;fill-opacity:1;stroke:#ffffff;stroke-width:1.32464862;stroke-miterlimit:4;stroke-dasharray:none;stroke-opacity:1"
         d="m 32.043844,102.86591 c -2.372291,-0.77712 -4.449111,-2.79016 -5.279061,-5.116956 -0.491726,-1.378564 -0.470419,-4.224187 0.0429,-5.730708 0.583666,-1.712968 2.649728,-3.912939 4.398378,-4.683453 1.94333,-0.856295 4.814186,-0.856295 6.757516,0 1.817862,0.80101 3.829637,2.981174 4.436276,4.807593 0.612662,1.844542 0.434388,4.958336 -0.373845,6.529826 -0.781558,1.519618 -2.306828,3.002948 -3.861988,3.755788 -1.557075,0.75377 -4.510791,0.96511 -6.12018,0.43791 z M 16.841546,86.194868 c -1.610905,-0.43369 -2.752003,-1.285788 -3.55359,-2.653594 -1.380032,-2.354847 -1.122277,-4.804931 0.747877,-7.10892 2.834523,-3.492071 8.480837,-6.958419 13.537532,-8.310874 2.361676,-0.631647 3.114691,-0.707649 7.011458,-0.707649 3.893844,0 4.649512,0.07614 6.992572,0.704567 4.826926,1.294614 10.024562,4.355105 12.981275,7.643682 1.574488,1.751208 1.997136,2.588903 2.174825,4.310539 0.386439,3.74424 -3.249806,7.005147 -6.931686,6.216191 -1.621655,-0.34749 -2.24399,-0.743711 -4.121063,-2.623766 -2.979441,-2.984172 -6.056992,-4.29051 -10.50826,-4.460476 -2.656496,-0.101436 -3.224445,-0.03905 -5.17182,0.568111 -2.564675,0.799626 -4.746006,2.150065 -6.85288,4.242549 -2.161921,2.147151 -4.029398,2.792613 -6.30624,2.17964 z M 2.5781483,72.503842 c -3.02026588,-1.205378 -4.4452333,-4.934584 -2.9785694,-7.795053 0.73762151,-1.438603 5.7082572,-6.161542 8.8108401,-8.371781 15.690494,-11.177695 36.658314,-11.177695 52.348809,0 3.102583,2.210239 8.073217,6.933178 8.810838,8.371781 0.785038,1.531075 0.750927,3.682053 -0.08229,5.189403 -0.965314,1.746313 -2.525861,2.719569 -4.569261,2.849684 -2.19851,0.139991 -3.206134,-0.381797 -6.195248,-3.20815 -2.900465,-2.74253 -5.158377,-4.353575 -8.453921,-6.031962 -4.833784,-2.461797 -10.009123,-3.674131 -15.68452,-3.674131 -5.672687,0 -10.88214,1.2295 -15.784165,3.725272 -3.16707,1.612455 -5.306528,3.143948 -8.312766,5.95055 -1.3183666,1.230818 -2.8605203,2.474304 -3.427008,2.763306 -1.116816,0.569756 -3.3461783,0.684678 -4.4827357,0.231081 z M -10.791216,59.201583 c -2.867861,-1.252837 -4.298645,-4.257244 -3.437736,-7.218666 0.367502,-1.264164 0.790446,-1.846435 2.991213,-4.118031 C 2.4160881,33.77163 22.724672,26.70666 42.541616,29.156073 c 11.170914,1.380747 21.834836,5.730295 31.058697,12.668068 3.244956,2.440711 8.745759,7.724858 9.422505,9.051389 1.160545,2.274855 0.882571,4.678804 -0.76337,6.601716 -1.170075,1.366969 -2.683894,2.080183 -4.415253,2.080183 -1.936329,0 -3.158257,-0.69042 -5.820833,-3.288916 C 63.428286,47.880293 54.199805,43.12513 42.654614,41.135666 38.969418,40.500635 30.192986,40.501361 26.515032,41.136989 14.957935,43.13434 5.4841211,48.017696 -2.8033639,56.249402 c -1.2679864,1.259451 -2.8100687,2.518987 -3.4268495,2.798963 -1.2966937,0.588614 -3.4024041,0.659345 -4.5610026,0.153205 z"
         id="path1064"
         inkscape:connector-curvature="0" />
      <path
         style="fill:#00a99f;fill-opacity:1;stroke:#ffffff;stroke-width:1.32464862;stroke-miterlimit:4;stroke-dasharray:none;stroke-opacity:1"
         d="m 32.505278,102.82259 c -5.721808,-1.59398 -7.95057,-8.234248 -4.340746,-12.932615 0.578281,-0.752663 1.606925,-1.640795 2.451541,-2.116667 1.344234,-0.757362 1.646891,-0.81983 3.96875,-0.819155 2.866459,7.94e-4 4.011459,0.438854 5.786061,2.213456 1.643899,1.643899 2.28373,3.247398 2.28373,5.723313 0,1.783771 -0.116768,2.354456 -0.74246,3.628612 -1.712151,3.486616 -5.733836,5.326286 -9.406876,4.303056 z M 15.931699,85.790351 c -2.890726,-1.338363 -4.166272,-4.965234 -2.764575,-7.860751 0.680828,-1.406404 3.940799,-4.525844 6.376074,-6.101215 10.892895,-7.046579 25.668347,-5.50119 34.45876,3.604098 2.040731,2.113828 2.54328,3.136006 2.54328,5.172983 0,3.200569 -2.486824,5.686498 -5.688541,5.686498 -1.795328,0 -2.902275,-0.58937 -5.162216,-2.748504 -6.477812,-6.188863 -15.611167,-6.200627 -22.172117,-0.02856 -1.162269,1.09338 -2.538145,2.165509 -3.057506,2.382512 -1.278099,0.534024 -3.249012,0.487476 -4.533159,-0.107064 z M 2.7388504,72.410651 C -0.10082627,71.398334 -1.6177388,67.972779 -0.46173749,65.182946 0.03610909,63.981471 4.0582372,59.856186 6.9358665,57.595615 20.157486,47.209143 38.449102,45.119723 53.50253,52.27639 c 3.581334,1.702628 5.974402,3.157204 8.731249,5.307102 2.895833,2.258285 6.70827,6.126305 7.303045,7.409515 1.669164,3.60118 -1.13679,7.820041 -5.186378,7.797922 -1.403445,-0.0077 -3.054696,-1.002316 -5.453189,-3.284792 C 53.300436,64.180035 46.564605,60.937726 39.02573,59.940921 28.535218,58.553846 18.343511,61.941266 10.263019,69.500793 6.8604288,72.684013 5.2513071,73.306316 2.7388504,72.410651 Z M -10.363788,59.182043 c -3.256802,-1.044178 -4.914203,-4.953936 -3.417709,-8.062271 0.672612,-1.397069 3.746985,-4.553934 7.3559061,-7.553285 C 0.50678747,37.805031 9.8200625,33.04813 18.4513,30.860224 c 5.342389,-1.354226 8.533706,-1.768828 14.678315,-1.906943 8.439472,-0.189699 14.123767,0.631611 21.695832,3.134778 9.248083,3.057224 18.029067,8.441868 25.111496,15.398783 2.860823,2.810123 3.581167,4.063007 3.589983,6.243986 0.01122,2.773053 -1.703938,4.904766 -4.482639,5.571368 -1.086019,0.26053 -1.550146,0.241096 -2.779887,-0.116398 C 74.979626,58.812304 74.384154,58.371863 71.672538,55.789413 64.107395,48.584635 56.582611,44.319692 47.322539,41.988168 41.290015,40.469285 33.28936,40.04216 27.282683,40.918315 15.698109,42.608084 4.9026263,48.123056 -3.2505912,56.51652 c -0.9458853,0.973757 -2.1393045,1.98806 -2.6520429,2.254006 -1.3297833,0.689732 -3.0876428,0.851885 -4.4611539,0.411517 z"
         id="path1062"
         inkscape:connector-curvature="0" />
      <path
         style="fill:#00a99f;fill-opacity:1;stroke:#ffffff;stroke-width:1.32464862;stroke-miterlimit:4;stroke-dasharray:none;stroke-opacity:1"
         d="m 32.026951,102.48717 c -5.317667,-1.90072 -7.086087,-8.262596 -3.540985,-12.738652 1.273752,-1.608241 3.833894,-2.771749 6.098857,-2.771749 1.473896,0 2.079223,0.148122 3.535868,0.865228 4.787285,2.356773 5.886214,8.463155 2.265243,12.587213 -1.857748,2.11586 -5.611474,3.04002 -8.358983,2.05796 z M 16.06588,85.605905 c -2.044623,-0.886664 -3.259397,-2.81093 -3.262881,-5.168574 -0.0028,-1.914136 0.775443,-3.281704 3.110902,-5.466411 3.386801,-3.168186 7.389716,-5.368617 12.001885,-6.597522 2.23701,-0.596048 3.096572,-0.684239 6.669037,-0.684239 3.572465,0 4.432027,0.08819 6.669037,0.684239 4.710125,1.255006 8.824377,3.542419 12.209073,6.787914 2.645102,2.536322 3.385248,4.267017 2.824485,6.604542 -0.598662,2.495502 -2.793542,4.261527 -5.296387,4.261527 -1.913506,0 -3.033381,-0.566698 -5.151837,-2.607019 -3.384655,-3.25982 -6.640784,-4.592423 -11.254371,-4.605959 -2.334027,-0.0069 -3.111838,0.105461 -4.865727,0.702575 -2.78285,0.947422 -4.159345,1.790853 -6.407366,3.926033 -1.034212,0.9823 -2.31031,1.965631 -2.835773,2.185183 -1.211066,0.506018 -3.215174,0.495887 -4.410077,-0.02228 z M 2.5721309,72.112156 C -0.06896514,70.966828 -1.3757675,67.680176 -0.23558437,65.050655 0.21998524,64.000008 4.9164177,59.364056 7.5973248,57.318615 13.17172,53.065541 19.563698,50.308229 27.308782,48.815666 c 2.951612,-0.568809 10.933082,-0.644927 13.890624,-0.132474 7.733979,1.340064 14.467672,4.205145 20.369462,8.66689 2.860972,2.162886 7.513989,6.784509 7.92865,7.875148 0.71347,1.876573 0.100496,4.549401 -1.354622,5.906711 -1.421268,1.325737 -3.85794,1.768353 -5.638773,1.024273 -0.496808,-0.207578 -2.019231,-1.427969 -3.383161,-2.711979 -7.107769,-6.69128 -15.101736,-9.924827 -24.536139,-9.924827 -9.434403,0 -17.42837,3.233547 -24.536139,9.924827 -1.3639302,1.28401 -2.8863522,2.504401 -3.3831597,2.711979 -1.1601685,0.484749 -2.9175931,0.465834 -4.0933934,-0.04406 z M -10.490315,58.916902 c -3.005512,-1.071436 -4.460397,-4.720921 -3.087619,-7.745095 0.59309,-1.306549 4.1872303,-4.936331 7.7446551,-7.821448 C 6.6131585,33.256135 23.068062,27.991235 38.591704,29.136172 c 15.182558,1.119779 28.021937,6.581599 39.355046,16.741474 4.718365,4.229907 6.000112,6.391066 5.315961,8.963249 -0.743609,2.795715 -2.676832,4.336735 -5.418516,4.319233 -2.131102,-0.0136 -2.891141,-0.462672 -6.217708,-3.673705 -4.820819,-4.653391 -8.60848,-7.308937 -14.340079,-10.053896 -4.908439,-2.350733 -8.581864,-3.53046 -14.234919,-4.571567 -3.558423,-0.655345 -13.374909,-0.655345 -16.933332,0 -5.616622,1.034398 -9.255228,2.202779 -14.214718,4.564444 -5.7736616,2.749365 -9.5051094,5.387975 -14.7571552,10.435185 -3.5905358,3.450502 -4.9757305,4.004884 -7.6365988,3.056313 z"
         id="path1060"
         inkscape:connector-curvature="0" />
    </g>
  </g>
  <g
     inkscape:label="Calque 1"
     inkscape:groupmode="layer"
     id="layer1"
     transform="translate(0,-161.53334)">
    <g
       inkscape:groupmode="layer"
       id="layer3"
       inkscape:label="Calque 3"
       transform="translate(0,161.53334)" />
  </g>
  <g
     inkscape:groupmode="layer"
     id="layer2"
     inkscape:label="Calque 2">
    <g
       id="g1031"
       transform="matrix(0.30884487,0,0,0.30884487,47.127866,40.140986)"
       style="fill:#ff5368;fill-opacity:1;stroke:#ffffff;stroke-width:4.96954632;stroke-miterlimit:4;stroke-dasharray:none;stroke-opacity:1">
      <path
         style="fill:#ff5368;fill-opacity:1;stroke:#ffffff;stroke-width:4.96954632;stroke-miterlimit:4;stroke-dasharray:none;stroke-opacity:1"
         d="m 44.880056,122.36034 c -0.03372,-0.0364 -0.123021,-7.80521 -0.198438,-17.26406 l -0.13712,-17.197916 -17.197916,-0.13712 c -9.458853,-0.07542 -17.227681,-0.164714 -17.264061,-0.198438 -0.03638,-0.03372 -0.06615,-6.954204 -0.06615,-15.378841 0,-13.723503 0.04355,-15.334239 0.418515,-15.478124 0.230183,-0.08833 8.028776,-0.1606 17.330207,-0.1606 H 44.676789 V 39.633549 c 0,-9.301431 0.07227,-17.100024 0.1606,-17.330207 0.143885,-0.374962 1.754621,-0.418515 15.478124,-0.418515 8.424637,0 15.345118,0.02977 15.378841,0.06615 0.03372,0.03638 0.123021,7.805208 0.198438,17.264061 l 0.13712,17.197916 17.197916,0.13712 c 9.458852,0.07542 17.227682,0.164714 17.264062,0.198438 0.14356,0.133077 0.0563,30.586474 -0.0881,30.730934 -0.0848,0.08489 -7.85365,0.21387 -17.264062,0.286631 l -17.109836,0.132291 -0.13712,17.197912 c -0.07542,9.45885 -0.164714,17.22768 -0.198438,17.26406 -0.03372,0.0364 -6.966941,0.0662 -15.407149,0.0662 -8.440208,0 -15.373426,-0.0298 -15.407149,-0.0662 z"
         id="path1045"
         inkscape:connector-curvature="0" />
      <path
         style="fill:#ff5368;fill-opacity:1;stroke:#ffffff;stroke-width:4.96954632;stroke-miterlimit:4;stroke-dasharray:none;stroke-opacity:1"
         d="M 44.877142,105.16243 44.809081,87.898364 27.478874,87.761278 c -9.531614,-0.0754 -17.359973,-0.164695 -17.396353,-0.198437 -0.03638,-0.03374 -0.06615,-6.966976 -0.06615,-15.407184 V 56.809825 H 27.16137 c 12.982222,0 17.222088,-0.07709 17.462499,-0.3175 0.240411,-0.240411 0.3175,-4.480277 0.3175,-17.462499 V 21.884827 h 15.345832 c 8.440208,0 15.373442,0.02977 15.407184,0.06615 0.03374,0.03638 0.123039,7.864739 0.198437,17.396353 l 0.137086,17.330207 17.264062,0.06806 17.26406,0.06806 V 72.152533 87.49141 l -0.59531,0.143187 c -0.32742,0.07875 -8.12431,0.140554 -17.326417,0.137332 l -16.731106,-0.0059 -0.06994,17.175951 c -0.03847,9.44677 -0.13939,17.24536 -0.224276,17.3302 -0.08489,0.0848 -7.019417,0.15427 -15.410063,0.15427 H 44.945204 Z"
         id="path1043"
         inkscape:connector-curvature="0" />
      <path
         style="fill:#ff5368;fill-opacity:1;stroke:#ffffff;stroke-width:4.96954632;stroke-miterlimit:4;stroke-dasharray:none;stroke-opacity:1"
         d="M 44.877129,105.03013 44.809081,87.633781 27.412728,87.565733 10.016375,87.497685 V 72.155657 56.813629 l 17.396353,-0.06805 17.396353,-0.06805 0.06805,-17.396353 0.06805,-17.396353 h 15.342028 15.342028 l 0.06805,17.396353 0.06805,17.396353 17.396353,0.06805 17.39635,0.06805 v 15.342028 15.342028 l -17.39635,0.06805 -17.396353,0.06805 -0.06805,17.396345 -0.06805,17.39636 H 60.287205 44.945177 Z"
         id="path1041"
         inkscape:connector-curvature="0" />
      <path
         style="fill:#ff5368;fill-opacity:1;stroke:#ffffff;stroke-width:4.96954632;stroke-miterlimit:4;stroke-dasharray:none;stroke-opacity:1"
         d="m 45.205956,105.3825 c 0,-9.374189 -0.07227,-17.232313 -0.160599,-17.462495 -0.144198,-0.375772 -1.941164,-0.418516 -17.594791,-0.418516 H 10.016375 V 72.287949 57.074408 h 17.277291 c 13.085116,0 17.354329,-0.07704 17.59479,-0.3175 0.240461,-0.240461 0.3175,-4.509674 0.3175,-17.59479 V 21.884827 h 15.213541 15.21354 v 17.434191 c 0,15.653627 0.04274,17.450593 0.418516,17.594791 0.230182,0.08833 8.088306,0.160599 17.462498,0.160599 h 17.043979 v 15.213541 15.21354 H 93.095536 75.633037 v 17.462501 17.4625 H 60.419497 45.205956 Z"
         id="path1039"
         inkscape:connector-curvature="0" />
      <path
         style="fill:#ff5368;fill-opacity:1;stroke:#ffffff;stroke-width:4.96954632;stroke-miterlimit:4;stroke-dasharray:none;stroke-opacity:1"
         d="M 45.141699,104.89784 45.073664,87.369198 H 27.544984 10.016303 l 3.6e-5,-15.145506 3.6e-5,-15.145506 17.528645,-0.06804 17.528644,-0.06804 0.06804,-17.528644 0.06803,-17.528645 15.145506,-3.6e-5 15.145506,-3.6e-5 v 17.528681 17.52868 l 17.528644,0.06804 17.52864,0.06804 6e-5,15.145506 5e-5,15.145506 -17.230186,-0.0718 c -12.785076,-0.05328 -17.325699,0.0075 -17.600394,0.23544 -0.311661,0.258656 -0.358865,3.041853 -0.298508,17.600492 l 0.07169,17.29327 -15.145506,-6e-5 -15.145506,-5e-5 z"
         id="path1037"
         inkscape:connector-curvature="0" />
      <path
         style="fill:#ff5368;fill-opacity:1;stroke:#ffffff;stroke-width:4.96954632;stroke-miterlimit:4;stroke-dasharray:none;stroke-opacity:1"
         d="m 45.413225,105.42706 c 0.04124,-9.349738 0.0092,-17.26742 -0.07119,-17.594842 l -0.146161,-0.595312 h -17.58975 -17.58975 l -5.4e-5,-15.015103 -5.3e-5,-15.015103 17.305801,0.07171 c 15.631495,0.06477 17.347103,0.0304 17.732696,-0.35519 0.385593,-0.385593 0.419957,-2.101201 0.35519,-17.732696 l -0.07171,-17.305801 15.015103,5.3e-5 15.015103,5.4e-5 v 17.58975 17.58975 l 0.595312,0.146161 c 0.327422,0.08039 8.245104,0.112425 17.594847,0.07119 l 16.999541,-0.07498 -6e-5,15.013214 -6e-5,15.013214 -17.528644,0.06804 -17.528644,0.06803 -0.06804,17.528641 -0.06803,17.52865 -15.013214,5e-5 -15.013214,6e-5 z"
         id="path1035"
         inkscape:connector-curvature="0" />
      <path
         style="fill:#ff5368;fill-opacity:1;stroke:#ffffff;stroke-width:4.96954632;stroke-miterlimit:4;stroke-dasharray:none;stroke-opacity:1"
         d="M 45.338248,104.76559 V 87.104614 H 27.677276 10.016304 V 72.155657 57.2067 H 27.677276 45.338248 V 39.545728 21.884756 H 60.287205 75.236162 V 39.545728 57.2067 h 17.660971 17.660977 l 1e-5,14.948957 2e-5,14.948957 -17.425581,-0.07165 c -14.670062,-0.06033 -17.474156,-0.01312 -17.732752,0.29846 -0.227923,0.27463 -0.288655,4.849466 -0.235408,17.732636 l 0.07176,17.36254 -14.948957,-2e-5 -14.948957,-2e-5 z"
         id="path1033"
         inkscape:connector-curvature="0" />
    </g>
  </g>
</svg>
